<?xml version="1.0" standalone="no"?>
<!DOCTYPE svg PUBLIC "-//W3C//DTD SVG 20010904//EN"
 "http://www.w3.org/TR/2001/REC-SVG-20010904/DTD/svg10.dtd">
<svg version="1.0" xmlns="http://www.w3.org/2000/svg"
 width="139.000000pt" height="123.000000pt" viewBox="0 0 139.000000 123.000000"
 preserveAspectRatio="xMidYMid meet">

<g transform="translate(0.000000,123.000000) scale(0.100000,-0.100000)"
fill="#000000" stroke="none">
<path d="M527 1116 c-213 -75 -343 -247 -355 -466 -8 -164 36 -279 153 -396
64 -64 170 -127 238 -139 l37 -7 0 176 0 176 -65 0 -65 0 0 85 0 85 64 0 63 0
5 88 c6 103 25 151 76 190 33 25 42 27 141 27 l106 0 3 -67 3 -68 -43 0 c-88
0 -107 -18 -115 -112 l-6 -58 71 0 c39 0 73 -4 76 -8 3 -5 0 -42 -7 -83 l-13
-74 -62 -3 -62 -3 0 -176 0 -176 38 6 c70 12 181 76 248 144 207 210 205 527
-5 733 -73 72 -166 124 -251 140 -93 18 -198 12 -273 -14z"/>
</g>
</svg>
