<?xml version="1.0" standalone="no"?>
<!DOCTYPE svg PUBLIC "-//W3C//DTD SVG 20010904//EN"
 "http://www.w3.org/TR/2001/REC-SVG-20010904/DTD/svg10.dtd">
<svg version="1.0" xmlns="http://www.w3.org/2000/svg"
 width="118.000000pt" height="119.000000pt" viewBox="0 0 118.000000 119.000000"
 preserveAspectRatio="xMidYMid meet">

<g transform="translate(0.000000,119.000000) scale(0.100000,-0.100000)"
fill="#000000" stroke="none">
<path d="M177 1166 c-9 -9 -17 -11 -19 -5 -6 19 -94 -50 -118 -93 l-25 -43 0
-428 c0 -346 3 -429 13 -436 8 -5 13 -11 13 -15 -3 -19 2 -27 35 -60 64 -64
89 -67 540 -64 307 2 398 6 402 16 2 6 11 12 21 12 20 0 73 47 91 79 6 13 8
21 3 18 -11 -7 -53 10 -53 22 0 5 13 14 30 20 25 8 30 7 30 -5 0 -8 -4 -12
-10 -9 -5 3 -10 1 -10 -4 0 -12 30 -15 30 -3 1 4 3 34 5 67 3 46 2 52 -4 25
l-8 -35 -3 45 c-1 33 -4 39 -8 22 -4 -13 -7 132 -7 322 0 190 3 346 8 346 4 0
7 -146 7 -325 0 -210 4 -325 10 -325 11 0 14 692 3 704 -4 3 -8 17 -10 29 -2
12 -11 29 -21 37 -10 8 -21 23 -24 32 -4 9 -26 27 -50 40 -42 22 -50 22 -449
26 -357 3 -408 1 -422 -12z m100 -13 c-33 -2 -55 -8 -52 -14 4 -5 -6 -8 -22
-8 -17 1 -21 3 -10 6 9 2 15 9 12 14 -4 5 22 8 62 7 l68 -2 -58 -3z m737 -9
c9 -8 19 -13 24 -11 4 3 16 -1 26 -9 17 -12 15 -13 -19 -9 -27 4 -44 0 -56
-11 -15 -13 -22 -14 -33 -5 -11 9 -104 12 -374 9 l-359 -3 -36 -27 c-42 -33
-43 -33 -50 -9 -3 13 1 21 15 24 13 4 17 10 12 18 -5 9 1 11 24 6 21 -4 34 -1
43 9 10 12 65 14 385 12 206 -2 374 0 374 4 0 4 -26 9 -57 11 l-58 3 62 2 c44
1 66 -2 77 -14z m-861 -1 c3 -5 -6 -9 -20 -10 -19 -1 -22 1 -12 8 17 11 26 11
32 2z m-23 -38 c-14 -17 -46 -20 -55 -6 -5 10 15 18 49 20 15 1 16 -2 6 -14z
m917 -25 c-3 -13 0 -20 9 -20 8 0 14 9 14 21 0 12 4 17 11 13 6 -3 8 -15 6
-26 -5 -17 -2 -19 19 -14 19 5 24 3 24 -14 0 -15 -7 -20 -28 -20 -35 0 -75 39
-66 63 9 24 17 21 11 -3z m-949 -29 c24 -2 12 -31 -13 -31 -16 0 -25 -6 -25
-16 0 -8 4 -13 8 -10 5 3 15 -6 22 -19 11 -20 11 -27 -1 -41 -11 -13 -14 -78
-17 -303 -1 -157 -6 -315 -10 -351 -4 -36 -7 121 -7 348 0 348 -2 411 -14 407
-11 -4 -11 -2 -2 9 7 8 20 13 29 11 9 -2 23 -4 30 -4z m879 -23 c-6 -4 -15 -2
-19 5 -4 6 -2 15 5 19 6 4 15 2 19 -5 4 -6 2 -15 -5 -19z m-657 12 c0 -5 -6
-10 -14 -10 -8 0 -18 5 -21 10 -3 6 3 10 14 10 12 0 21 -4 21 -10z m314 -2
c-7 -10 -304 -10 -304 0 0 4 69 7 154 7 85 0 152 -3 150 -7z m159 3 c4 -1 7
-8 7 -16 0 -21 -27 -19 -40 4 -8 16 -7 19 8 16 9 -2 20 -4 25 -4z m-753 -83
c0 -34 -4 -48 -9 -38 -8 14 -3 90 5 90 2 0 4 -24 4 -52z m1100 31 c0 -6 -4 -7
-10 -4 -5 3 -10 11 -10 16 0 6 5 7 10 4 6 -3 10 -11 10 -16z m-980 -59 c0 -27
-4 -52 -10 -55 -5 -3 -11 0 -12 7 0 7 -2 18 -2 23 -1 6 -5 16 -9 22 -5 7 -3
21 3 30 10 16 11 15 7 -5 -3 -13 -1 -20 5 -16 5 4 8 17 5 30 -2 13 0 21 4 18
5 -3 9 -27 9 -54z m634 44 c21 -21 21 -21 -11 -18 -16 1 -43 2 -60 3 -45 1
-42 19 5 24 20 2 40 4 44 5 4 1 14 -5 22 -14z m-138 -23 c-3 -5 2 -12 11 -15
15 -6 15 -8 -1 -24 -14 -15 -18 -15 -26 -3 -8 14 3 51 16 51 3 0 3 -4 0 -9z
m57 -8 c-7 -2 -19 -2 -25 0 -7 3 -2 5 12 5 14 0 19 -2 13 -5z m167 -2 c0 -6
-9 -8 -20 -6 -13 2 -20 -2 -20 -11 0 -8 -4 -13 -8 -10 -4 2 -14 1 -22 -4 -9
-5 -19 -5 -27 2 -19 16 -16 26 10 31 42 8 87 7 87 -2z m64 3 c9 -3 16 -10 16
-15 0 -6 -9 -5 -20 1 -22 12 -27 1 -8 -18 9 -9 8 -12 -5 -12 -14 0 -37 27 -37
44 0 8 34 8 54 0z m-211 -21 c-7 -2 -19 -2 -25 0 -7 3 -2 5 12 5 14 0 19 -2
13 -5z m157 -23 c0 -5 -2 -10 -4 -10 -3 0 -8 5 -11 10 -3 6 -1 10 4 10 6 0 11
-4 11 -10z m-106 -6 c34 -5 46 -11 42 -21 -6 -16 43 -10 74 9 15 9 22 10 31 1
8 -8 6 -17 -10 -34 -28 -31 -17 -38 14 -9 14 13 25 18 25 12 0 -7 -4 -12 -10
-12 -6 0 -6 -9 0 -25 5 -14 7 -26 5 -26 -3 -1 -8 -2 -13 -3 -4 0 -19 -10 -33
-21 -23 -18 -26 -29 -28 -88 -1 -45 -10 -84 -26 -120 -18 -41 -21 -57 -12 -73
9 -17 9 -18 -6 -5 -14 11 -17 11 -17 0 0 -8 -16 -27 -35 -42 -20 -16 -32 -33
-29 -39 4 -6 3 -8 -3 -5 -6 4 -21 -3 -34 -15 -35 -31 -102 -58 -159 -65 -28
-3 -53 -10 -56 -14 -3 -5 -22 -10 -42 -11 -33 -1 -32 -2 13 -8 l50 -7 -62 -1
c-35 -1 -63 -6 -63 -11 0 -10 8 -10 208 -12 83 0 152 -5 152 -10 0 -5 -8 -9
-17 -9 -10 -1 -71 -3 -137 -6 -88 -4 -117 -3 -111 6 5 8 -8 11 -47 9 -29 -1
-65 3 -79 9 -15 6 -30 8 -33 5 -3 -4 -6 -2 -6 3 0 6 20 15 45 22 52 14 59 32
13 32 -46 1 -163 43 -163 59 0 10 16 15 55 16 31 1 74 11 99 22 l43 20 -30 11
c-17 6 -39 20 -48 31 -10 11 -22 17 -27 14 -6 -3 -7 -1 -3 6 4 6 2 18 -4 26
-10 12 -10 18 -1 29 15 18 -5 34 -22 17 -8 -8 -7 -11 2 -11 10 0 11 -3 2 -14
-8 -10 -9 -16 -1 -21 5 -3 10 -14 9 -23 0 -12 -3 -11 -9 6 -5 12 -14 22 -20
22 -5 0 -10 5 -10 11 0 5 5 7 11 3 7 -4 10 -1 7 7 -3 8 -1 22 4 32 13 26 -7
21 -25 -7 -9 -13 -13 -34 -11 -47 3 -14 2 -20 -3 -13 -4 5 -19 18 -33 27 -27
19 -34 56 -13 76 10 9 13 9 13 -2 0 -7 7 -22 15 -33 21 -28 35 -3 29 55 -2 25
-1 53 2 64 6 18 6 18 20 0 9 -11 8 -4 -3 18 -10 20 -21 35 -25 33 -3 -2 -5 4
-3 13 10 51 13 106 4 92 -7 -11 -9 -11 -9 0 0 23 -28 -7 -40 -44 -9 -26 -8
-41 5 -71 14 -35 14 -39 -3 -58 -11 -12 -22 -29 -25 -39 -4 -10 -11 -15 -17
-12 -15 9 -12 41 5 58 10 11 13 32 11 73 -2 36 2 70 10 86 12 23 20 27 56 26
35 0 50 -7 84 -38 53 -49 76 -61 95 -49 7 5 21 8 29 8 8 0 5 -4 -8 -10 -22 -8
-22 -29 -1 -29 6 0 7 5 4 10 -3 6 1 10 10 10 11 0 15 -5 11 -15 -4 -10 6 -18
35 -25 53 -15 69 -8 69 30 0 16 -1 32 -2 34 -2 3 7 15 20 29 21 22 21 25 6 31
-21 8 -32 -7 -28 -40 1 -13 -2 -24 -7 -24 -5 0 -8 -5 -7 -12 2 -6 -8 -15 -22
-19 -25 -7 -25 -7 4 -8 16 -1 27 -4 23 -7 -10 -10 -78 6 -72 17 4 5 1 9 -6 9
-7 0 -9 3 -6 6 10 11 -33 65 -46 58 -7 -4 -1 4 13 18 17 16 29 21 37 15 14
-10 7 -31 -8 -22 -5 4 -9 1 -9 -4 0 -6 6 -11 14 -11 8 0 17 -13 21 -30 4 -20
13 -30 25 -30 15 0 18 6 15 35 -2 22 1 35 9 35 6 0 17 9 24 20 7 11 17 20 23
20 5 0 7 -4 4 -10 -10 -17 18 -11 50 10 32 21 63 24 139 14z m-400 -20 c8 -3
12 -12 9 -20 -4 -10 -10 -11 -24 -3 -11 5 -17 14 -14 20 7 11 9 11 29 3z
m-347 -236 c-1 -46 -3 -11 -3 77 0 88 2 125 3 83 2 -42 2 -114 0 -160z m303
212 c8 -11 20 -20 27 -20 7 0 13 -5 13 -11 0 -5 4 -8 9 -5 5 3 14 -1 21 -9 7
-8 9 -15 6 -15 -16 0 -95 52 -100 65 -8 22 7 18 24 -5z m250 -10 c0 -5 -5 -10
-11 -10 -5 0 -7 5 -4 10 3 6 8 10 11 10 2 0 4 -4 4 -10z m374 -97 c-7 -2 -11
-20 -9 -41 1 -20 0 -25 -2 -9 -5 28 -10 32 -31 19 -14 -10 -6 -92 9 -92 5 0 9
-16 9 -35 0 -24 -5 -35 -14 -35 -8 0 -25 -20 -37 -45 l-23 -45 23 -31 c26 -34
25 -35 -9 -43 -16 -4 -33 0 -48 12 l-24 18 25 30 c20 23 23 34 15 48 -7 13 -7
17 0 12 10 -6 25 21 18 33 -3 4 5 8 16 8 11 1 22 4 24 6 2 2 0 35 -5 73 -9 68
-9 69 20 95 16 15 29 33 29 40 0 11 2 11 13 0 9 -10 9 -15 1 -18z m0 -255 c3
-16 2 -28 -3 -28 -9 0 -21 33 -21 60 0 22 16 -1 24 -32z m-684 -14 c0 -8 -4
-12 -10 -9 -5 3 -10 13 -10 21 0 8 5 12 10 9 6 -3 10 -13 10 -21z m70 -34 c0
-5 8 -10 18 -11 14 0 13 -2 -5 -11 -12 -6 -29 -8 -37 -5 -23 9 -20 37 4 37 11
0 20 -4 20 -10z m-150 -39 c0 -5 3 -16 6 -25 3 -9 1 -16 -5 -16 -6 0 -11 7
-11 15 0 9 -10 20 -22 25 -22 8 -22 9 5 9 15 1 27 -3 27 -8z m6 -61 c16 -8 32
-19 36 -25 5 -6 8 -5 8 4 0 11 3 11 15 1 8 -6 20 -8 26 -4 8 4 9 3 5 -4 -4 -7
-14 -12 -22 -12 -8 0 -14 -4 -14 -9 0 -6 -12 -6 -30 0 -16 6 -27 15 -24 20 3
5 1 9 -4 9 -19 0 -51 41 -45 57 6 14 7 14 14 -3 3 -11 20 -26 35 -34z m569 0
c0 -23 -4 -25 -42 -25 -38 -1 -41 1 -28 15 8 9 12 20 8 25 -5 4 -3 5 4 1 6 -3
15 -2 18 4 12 20 40 6 40 -20z m-598 -34 c-4 -9 1 -17 11 -20 13 -4 13 -4 -2
-3 -19 2 -33 37 -14 37 6 0 8 -6 5 -14z m483 4 c0 -13 -11 -13 -30 0 -12 8
-11 10 8 10 12 0 22 -4 22 -10z m-340 -50 c0 -12 -47 -12 -75 0 -15 6 -8 9 28
9 26 1 47 -3 47 -9z m240 0 c0 -5 -2 -10 -4 -10 -3 0 -8 5 -11 10 -3 6 -1 10
4 10 6 0 11 -4 11 -10z m225 -20 c3 -5 1 -10 -4 -10 -6 0 -11 5 -11 10 0 6 2
10 4 10 3 0 8 -4 11 -10z m-748 -37 c-3 -10 -5 -4 -5 12 0 17 2 24 5 18 2 -7
2 -21 0 -30z m58 12 c0 -10 -6 -20 -12 -22 -9 -3 -12 4 -11 21 3 29 23 30 23
1z m68 5 c-3 -11 -9 -17 -14 -14 -14 8 -10 34 5 34 9 0 12 -7 9 -20z m900 7
c23 -24 16 -34 -21 -33 -40 1 -59 30 -25 39 30 8 34 7 46 -6z m-983 -69 c0
-10 -4 -16 -10 -13 -6 3 -7 -1 -4 -9 3 -9 10 -13 15 -10 5 3 6 -3 2 -12 -6
-16 -7 -15 -20 2 -7 10 -13 33 -13 52 0 30 2 33 15 22 8 -7 15 -21 15 -32z
m918 -11 c3 -39 -8 -45 -36 -20 -18 17 -5 65 17 61 11 -2 17 -16 19 -41z
m-840 -24 c2 -8 -6 -13 -22 -13 -25 0 -33 10 -19 24 10 10 36 3 41 -11z m909
11 c-3 -3 -12 -4 -19 -1 -8 3 -5 6 6 6 11 1 17 -2 13 -5z m50 0 c-3 -3 -12 -4
-19 -1 -8 3 -5 6 6 6 11 1 17 -2 13 -5z m-37 -29 c-7 -9 -15 -13 -19 -10 -3 3
1 10 9 15 21 14 24 12 10 -5z m-26 -18 c3 -11 -2 -20 -12 -23 -9 -3 -28 -10
-42 -16 -30 -12 -784 -17 -767 -5 7 4 -4 5 -23 2 -39 -7 -104 18 -75 28 8 4
22 4 31 0 13 -5 13 -8 2 -15 -12 -9 23 -5 77 8 16 4 17 3 5 -5 -16 -11 685
-16 727 -5 12 3 24 16 27 28 7 27 43 29 50 3z m-372 -24 c-73 -2 -190 -2 -260
0 -70 1 -10 3 133 3 143 0 200 -2 127 -3z m191 0 c-7 -2 -19 -2 -25 0 -7 3 -2
5 12 5 14 0 19 -2 13 -5z m84 1 c-3 -3 -12 -4 -19 -1 -8 3 -5 6 6 6 11 1 17
-2 13 -5z"/>
<path d="M248 1123 c6 -2 18 -2 25 0 6 3 1 5 -13 5 -14 0 -19 -2 -12 -5z"/>
<path d="M457 1123 c79 -2 207 -2 285 0 79 1 15 3 -142 3 -157 0 -221 -2 -143
-3z"/>
<path d="M923 1123 c9 -2 23 -2 30 0 6 3 -1 5 -18 5 -16 0 -22 -2 -12 -5z"/>
<path d="M66 955 c-3 -9 -5 -33 -5 -53 2 -33 2 -32 9 13 8 53 6 66 -4 40z"/>
<path d="M63 670 c0 -25 2 -35 4 -22 2 12 2 32 0 45 -2 12 -4 2 -4 -23z"/>
<path d="M866 503 c-6 -14 -5 -15 5 -6 7 7 10 15 7 18 -3 3 -9 -2 -12 -12z"/>
</g>
</svg>
